<svg width="15" height="15" viewBox="0 0 15 15" fill="none" xmlns="http://www.w3.org/2000/svg">
<path d="M14.7017 5.75288C14.5028 5.554 14.2612 5.4546 13.9772 5.4546H9.54533V1.02263C9.54533 0.73863 9.44585 0.497097 9.24704 0.298213C9.04819 0.0994791 8.80685 0 8.52244 0H6.47719C6.19315 0 5.95166 0.0993672 5.75277 0.298251C5.55389 0.497134 5.45448 0.738668 5.45448 1.02266V5.45463H1.02266C0.738668 5.45463 0.497134 5.55404 0.298251 5.75292C0.0993672 5.95181 0 6.19312 0 6.4773V8.52281C0 8.80707 0.0993299 9.04842 0.298213 9.24712C0.497097 9.44607 0.73863 9.5454 1.02263 9.5454H5.45445V13.9774C5.45445 14.2614 5.55385 14.5032 5.75274 14.702C5.95162 14.9007 6.19312 15 6.47715 15H8.52255C8.80677 15 9.04816 14.9007 9.24708 14.702C9.44604 14.5031 9.54537 14.2614 9.54537 13.9774V9.5454H13.9771C14.2614 9.5454 14.5029 9.44607 14.7017 9.24712C14.9005 9.04842 15 8.80707 15 8.52281V6.4773C14.9999 6.19312 14.9007 5.95166 14.7017 5.75288Z" fill="white"/>
</svg>
