<svg width="13" height="15" viewBox="0 0 13 15" fill="none" xmlns="http://www.w3.org/2000/svg">
<path d="M12.6091 14.3603V1.98021C12.6091 1.62824 12.3214 1.34054 11.9695 1.34054H8.43142L7.76115 0.287696C7.6326 0.0948786 7.44284 0 7.21942 0H5.87888C5.65545 0 5.46264 0.0948786 5.33715 0.287696L4.64546 1.37115H1.02783C0.675857 1.37115 0.388161 1.65884 0.388161 2.01081V14.3603C0.388161 14.7123 0.675857 15 1.02783 15H12.0031C12.3551 15 12.6428 14.7123 12.6091 14.3603ZM6.19718 1.24872H6.83685L8.11312 3.25954H4.92091L6.19718 1.24872ZM11.3635 13.7543H1.63383V2.65048H3.83134L3.26206 3.54417C2.94682 4.2726 3.54976 4.50214 3.77318 4.50214H9.26084C10.1117 4.43787 9.96172 3.73699 9.83623 3.54417L9.24554 2.61987H11.3665V13.7543H11.3635Z" fill="white"/>
</svg>
