<svg width="13" height="15" viewBox="0 0 13 15" fill="none" xmlns="http://www.w3.org/2000/svg">
<path d="M11.0035 10.7222L8.61525 9.52825C8.39 9.4155 8.25 9.189 8.25 8.937V8.09175C8.30725 8.02175 8.3675 7.942 8.42975 7.854C8.7395 7.4165 8.98775 6.9295 9.16825 6.40425C9.521 6.2425 9.75 5.89375 9.75 5.5V4.5C9.75 4.25925 9.66 4.026 9.5 3.84375V2.514C9.514 2.3765 9.569 1.558 8.977 0.88275C8.4635 0.297 7.63025 0 6.5 0C5.36975 0 4.5365 0.297 4.023 0.8825C3.431 1.55775 3.486 2.3765 3.5 2.514V3.84375C3.34 4.026 3.25 4.25925 3.25 4.5V5.5C3.25 5.80425 3.38825 6.088 3.62425 6.27725C3.85325 7.184 4.3325 7.86725 4.5 8.0865V8.91375C4.5 9.15575 4.368 9.37775 4.15575 9.49375L1.9255 10.7102C1.20025 11.106 0.75 11.8645 0.75 12.6905V13.5C0.75 14.6865 4.51125 15 6.5 15C8.48875 15 12.25 14.6865 12.25 13.5V12.7393C12.25 11.8798 11.7723 11.1067 11.0035 10.7222Z" fill="white"/>
</svg>
