<svg width="15" height="11" viewBox="0 0 15 11" fill="none" xmlns="http://www.w3.org/2000/svg">
<path d="M11.4844 0.339843L3.51564 0.339844C1.57712 0.339844 1.10879e-05 1.91695 1.11726e-05 3.85547L1.12904e-05 6.55078C1.13752e-05 8.4893 1.57712 10.0664 3.51564 10.0664L11.4844 10.0664C13.4229 10.0664 15 8.4893 15 6.55078L15 3.85547C15 1.91695 13.4229 0.339843 11.4844 0.339843ZM1.17189 3.85547C1.17189 2.56309 2.22326 1.51172 3.51564 1.51172L11.4844 1.51172C12.7768 1.51172 13.8281 2.56309 13.8281 3.85547L13.8281 6.55078C13.8281 7.84316 12.7768 8.89453 11.4844 8.89453L3.51564 8.89453C2.22326 8.89453 1.17189 7.84316 1.17189 6.55078L1.17189 3.85547Z" fill="black" fill-opacity="0.5"/>
</svg>
